<?xml version="1.0" encoding="UTF-8"?>
<svg xmlns="http://www.w3.org/2000/svg" width="352" height="437" viewBox="0 0 352 437" version="1.1">
  <title>Emeritus mobile phone mockup - editable text SVG</title>
  <desc>Transparent-background vector SVG. Phone/swoosh is an editable path; EMERITUS is an editable text layer.</desc>
  <g id="mobile_phone_mockup" fill="#3A3B3D" fill-rule="evenodd">
    <path id="phone_and_swoosh" d="M 66.0 21.0 L 61.0 26.0 L 60.0 31.0 L 57.0 33.0 L 56.0 41.0 L 54.0 45.0 L 54.0 185.0 L 53.0 186.0 L 53.0 192.0 L 54.0 193.0 L 54.0 243.0 L 53.0 244.0 L 54.0 247.0 L 54.0 293.0 L 52.0 295.0 L 44.0 295.0 L 42.0 293.0 L 42.0 291.0 L 40.0 290.0 L 36.0 281.0 L 36.0 268.0 L 38.0 265.0 L 39.0 259.0 L 42.0 255.0 L 43.0 247.0 L 46.0 243.0 L 46.0 236.0 L 47.0 235.0 L 47.0 218.0 L 46.0 217.0 L 46.0 211.0 L 45.0 209.0 L 40.0 205.0 L 30.0 214.0 L 29.0 218.0 L 27.0 219.0 L 23.0 224.0 L 22.0 229.0 L 16.0 239.0 L 16.0 241.0 L 12.0 249.0 L 11.0 256.0 L 9.0 259.0 L 9.0 263.0 L 8.0 264.0 L 8.0 289.0 L 9.0 290.0 L 9.0 293.0 L 11.0 295.0 L 12.0 301.0 L 15.0 304.0 L 16.0 307.0 L 28.0 318.0 L 32.0 319.0 L 34.0 321.0 L 38.0 322.0 L 43.0 325.0 L 56.0 326.0 L 64.0 329.0 L 88.0 329.0 L 92.0 327.0 L 97.0 327.0 L 98.0 326.0 L 107.0 326.0 L 113.0 323.0 L 122.0 322.0 L 127.0 319.0 L 136.0 318.0 L 141.0 315.0 L 151.0 315.0 L 153.0 317.0 L 159.0 319.0 L 174.0 319.0 L 180.0 317.0 L 181.0 319.0 L 179.0 321.0 L 175.0 321.0 L 169.0 325.0 L 165.0 325.0 L 154.0 332.0 L 145.0 333.0 L 142.0 336.0 L 135.0 336.0 L 130.0 339.0 L 122.0 340.0 L 116.0 343.0 L 102.0 344.0 L 96.0 347.0 L 90.0 347.0 L 89.0 348.0 L 78.0 348.0 L 70.0 351.0 L 46.0 351.0 L 45.0 352.0 L 39.0 352.0 L 37.0 354.0 L 31.0 356.0 L 31.0 359.0 L 37.0 360.0 L 40.0 363.0 L 51.0 364.0 L 53.0 366.0 L 53.0 373.0 L 54.0 374.0 L 54.0 400.0 L 56.0 403.0 L 56.0 405.0 L 62.0 416.0 L 70.0 423.0 L 74.0 424.0 L 76.0 426.0 L 78.0 426.0 L 81.0 428.0 L 88.0 428.0 L 89.0 429.0 L 123.0 429.0 L 124.0 428.0 L 249.0 429.0 L 250.0 428.0 L 270.0 427.0 L 273.0 424.0 L 279.0 424.0 L 284.0 420.0 L 288.0 419.0 L 288.0 418.0 L 291.0 416.0 L 291.0 414.0 L 294.0 411.0 L 295.0 407.0 L 298.0 402.0 L 298.0 394.0 L 299.0 393.0 L 299.0 265.0 L 300.0 264.0 L 299.0 259.0 L 300.0 256.0 L 302.0 255.0 L 302.0 252.0 L 305.0 250.0 L 313.0 240.0 L 313.0 233.0 L 312.0 232.0 L 307.0 232.0 L 304.0 235.0 L 301.0 236.0 L 297.0 241.0 L 294.0 242.0 L 292.0 245.0 L 289.0 246.0 L 281.0 254.0 L 278.0 255.0 L 273.0 261.0 L 271.0 261.0 L 269.0 264.0 L 264.0 266.0 L 260.0 271.0 L 257.0 272.0 L 253.0 276.0 L 249.0 277.0 L 249.0 278.0 L 245.0 280.0 L 243.0 283.0 L 241.0 283.0 L 239.0 286.0 L 233.0 288.0 L 225.0 295.0 L 220.0 296.0 L 215.0 302.0 L 213.0 302.0 L 207.0 306.0 L 202.0 307.0 L 199.0 310.0 L 196.0 311.0 L 195.0 313.0 L 190.0 314.0 L 187.0 317.0 L 183.0 317.0 L 182.0 315.0 L 188.0 311.0 L 193.0 305.0 L 193.0 301.0 L 196.0 298.0 L 196.0 295.0 L 197.0 294.0 L 196.0 291.0 L 191.0 286.0 L 186.0 287.0 L 184.0 290.0 L 180.0 291.0 L 175.0 294.0 L 168.0 294.0 L 163.0 290.0 L 163.0 281.0 L 169.0 274.0 L 174.0 273.0 L 180.0 266.0 L 180.0 262.0 L 173.0 257.0 L 158.0 257.0 L 157.0 258.0 L 153.0 258.0 L 144.0 264.0 L 139.0 273.0 L 138.0 277.0 L 136.0 279.0 L 136.0 282.0 L 133.0 286.0 L 125.0 291.0 L 121.0 291.0 L 112.0 295.0 L 108.0 295.0 L 103.0 298.0 L 92.0 298.0 L 90.0 296.0 L 85.0 297.0 L 83.0 294.0 L 82.0 63.0 L 81.0 62.0 L 81.0 54.0 L 83.0 51.0 L 83.0 49.0 L 87.0 45.0 L 91.0 44.0 L 93.0 42.0 L 98.0 42.0 L 99.0 41.0 L 212.0 41.0 L 213.0 40.0 L 253.0 40.0 L 254.0 41.0 L 260.0 41.0 L 270.0 47.0 L 271.0 49.0 L 271.0 59.0 L 272.0 60.0 L 272.0 73.0 L 271.0 74.0 L 271.0 157.0 L 272.0 160.0 L 271.0 161.0 L 271.0 196.0 L 270.0 197.0 L 270.0 200.0 L 268.0 203.0 L 264.0 206.0 L 261.0 211.0 L 258.0 212.0 L 250.0 219.0 L 249.0 225.0 L 247.0 229.0 L 242.0 234.0 L 237.0 236.0 L 231.0 241.0 L 226.0 243.0 L 225.0 245.0 L 219.0 246.0 L 213.0 250.0 L 210.0 254.0 L 208.0 255.0 L 206.0 259.0 L 206.0 265.0 L 210.0 270.0 L 224.0 270.0 L 227.0 269.0 L 234.0 264.0 L 239.0 255.0 L 242.0 254.0 L 244.0 251.0 L 248.0 250.0 L 250.0 247.0 L 254.0 244.0 L 259.0 242.0 L 261.0 243.0 L 266.0 243.0 L 269.0 240.0 L 273.0 239.0 L 294.0 219.0 L 296.0 215.0 L 299.0 213.0 L 299.0 211.0 L 310.0 201.0 L 320.0 188.0 L 321.0 184.0 L 328.0 175.0 L 329.0 171.0 L 332.0 168.0 L 333.0 162.0 L 336.0 160.0 L 336.0 158.0 L 340.0 152.0 L 340.0 147.0 L 342.0 145.0 L 344.0 139.0 L 344.0 123.0 L 345.0 122.0 L 345.0 119.0 L 344.0 118.0 L 344.0 104.0 L 340.0 99.0 L 338.0 92.0 L 333.0 89.0 L 333.0 86.0 L 329.0 84.0 L 327.0 81.0 L 322.0 80.0 L 318.0 77.0 L 310.0 77.0 L 306.0 81.0 L 306.0 86.0 L 305.0 87.0 L 306.0 89.0 L 306.0 98.0 L 309.0 104.0 L 309.0 106.0 L 316.0 114.0 L 316.0 132.0 L 313.0 137.0 L 312.0 143.0 L 309.0 146.0 L 309.0 150.0 L 306.0 152.0 L 304.0 158.0 L 300.0 160.0 L 299.0 159.0 L 299.0 46.0 L 298.0 45.0 L 298.0 39.0 L 291.0 25.0 L 280.0 17.0 L 265.0 15.0 L 259.0 13.0 L 92.0 13.0 L 78.0 17.0 L 74.0 17.0 L 70.0 20.0 Z
M 178.0 368.0 L 180.0 368.0 L 181.0 370.0 L 186.0 372.0 L 191.0 377.0 L 192.0 379.0 L 192.0 381.0 L 193.0 382.0 L 193.0 392.0 L 192.0 393.0 L 192.0 396.0 L 184.0 404.0 L 181.0 404.0 L 180.0 405.0 L 174.0 405.0 L 173.0 404.0 L 170.0 404.0 L 168.0 403.0 L 167.0 401.0 L 166.0 401.0 L 160.0 394.0 L 160.0 392.0 L 159.0 391.0 L 159.0 383.0 L 160.0 382.0 L 160.0 379.0 L 168.0 371.0 L 171.0 371.0 L 172.0 370.0 L 174.0 370.0 Z"/>
  </g>
  <g id="emeritus_text_layer">
    <text id="emeritus_text" x="88" y="181" fill="#A55084" font-family="Impact, Anton, Haettenschweiler, 'Arial Black', sans-serif" font-size="42" font-weight="900" textLength="174" lengthAdjust="spacingAndGlyphs">EMERITUS</text>
  </g>
</svg>
